<?xml version="1.0" standalone="no"?><!DOCTYPE svg PUBLIC "-//W3C//DTD SVG 1.1//EN" "http://www.w3.org/Graphics/SVG/1.1/DTD/svg11.dtd"><svg t="1724223382322" class="icon" viewBox="0 0 1024 1024" version="1.1" xmlns="http://www.w3.org/2000/svg" p-id="7416" xmlns:xlink="http://www.w3.org/1999/xlink" width="200" height="200"><path d="M853.333333 341.333333H170.666667a113.777778 113.777778 0 0 0-113.777778 113.777778v455.111111a113.777778 113.777778 0 0 0 113.777778 113.777778h682.666666a113.777778 113.777778 0 0 0 113.777778-113.777778V455.111111a113.777778 113.777778 0 0 0-113.777778-113.777778zM170.666667 455.111111h682.666666v455.111111H170.666667V455.111111z" fill="#2082FB" p-id="7417"></path><path d="M381.553778 850.488889a56.888889 56.888889 0 1 1-80.440889-80.440889l80.440889-80.497778-80.440889-80.440889a56.888889 56.888889 0 0 1 80.440889-80.440889l120.661333 120.661334a56.888889 56.888889 0 0 1 4.437333 75.491555l-4.437333 4.949334-120.604444 120.718222z" fill="#F39422" p-id="7418"></path><path d="M512 739.555556m56.888889 0l170.666667 0q56.888889 0 56.888888 56.888888l0 0q0 56.888889-56.888888 56.888889l-170.666667 0q-56.888889 0-56.888889-56.888889l0 0q0-56.888889 56.888889-56.888888Z" fill="#2082FB" p-id="7419"></path><path d="M113.777778 170.666667m56.888889 0l682.666666 0q56.888889 0 56.888889 56.888889l0 0q0 56.888889-56.888889 56.888888l-682.666666 0q-56.888889 0-56.888889-56.888888l0 0q0-56.888889 56.888889-56.888889Z" fill="#2082FB" p-id="7420"></path><path d="M227.555556 0m56.888888 0l455.111112 0q56.888889 0 56.888888 56.888889l0 0q0 56.888889-56.888888 56.888889l-455.111112 0q-56.888889 0-56.888888-56.888889l0 0q0-56.888889 56.888888-56.888889Z" fill="#2082FB" p-id="7421"></path></svg>