<?xml version="1.0" standalone="no"?><!DOCTYPE svg PUBLIC "-//W3C//DTD SVG 1.1//EN" "http://www.w3.org/Graphics/SVG/1.1/DTD/svg11.dtd"><svg t="1724224193363" class="icon" viewBox="0 0 1024 1024" version="1.1" xmlns="http://www.w3.org/2000/svg" p-id="12599" xmlns:xlink="http://www.w3.org/1999/xlink" width="200" height="200"><path d="M265.309091 162.909091l39.563636 39.563636c34.909091 34.909091 81.454545 53.527273 132.654546 53.527273H930.909091v93.090909H93.090909V162.909091h172.218182m0-93.090909H93.090909C41.890909 69.818182 0 111.709091 0 162.909091v186.181818c0 51.2 41.890909 93.090909 93.090909 93.090909h837.818182c51.2 0 93.090909-41.890909 93.090909-93.090909v-93.090909c0-51.2-41.890909-93.090909-93.090909-93.090909H435.2c-25.6 0-48.872727-9.309091-65.163636-27.927273l-39.563637-39.563636c-16.290909-16.290909-39.563636-25.6-65.163636-25.6z" fill="#176AFD" p-id="12600"></path><path d="M930.909091 442.181818v418.909091H93.090909V442.181818h837.818182m93.090909-93.090909H0v512c0 51.2 41.890909 93.090909 93.090909 93.090909h837.818182c51.2 0 93.090909-41.890909 93.090909-93.090909V349.090909z" fill="#1D2633" p-id="12601"></path></svg>